<?xml version="1.0" encoding="utf-8"?>
<!-- Generator: Adobe Illustrator 16.0.0, SVG Export Plug-In . SVG Version: 6.00 Build 0)  -->
<!DOCTYPE svg PUBLIC "-//W3C//DTD SVG 1.1//EN" "http://www.w3.org/Graphics/SVG/1.1/DTD/svg11.dtd">
<svg version="1.1" id="Layer_1" xmlns="http://www.w3.org/2000/svg" xmlns:xlink="http://www.w3.org/1999/xlink" x="0px" y="0px"
	 width="1296px" height="834.633px" viewBox="0 15.556 1296 834.633" enable-background="new 0 15.556 1296 834.633"
	 xml:space="preserve">
<g opacity="0.5">
	<g>
		<path d="M647.503,760.438c-180.653,0-327.334-146.911-327.334-327.336c0-180.423,146.911-327.334,327.334-327.334
			c180.423,0,327.334,146.911,327.334,327.334C975.066,613.526,828.156,760.438,647.503,760.438z M647.503,114.032
			c-175.833,0-318.841,143.006-318.841,318.841c0,175.833,143.008,318.841,318.841,318.841
			c175.833,0,318.841-143.008,318.841-318.841C966.574,257.269,823.336,114.032,647.503,114.032z"/>
	</g>
	<path d="M602.281,153.514v267.193h62.209v24.562h-62.209v93.654h-27.315v-93.425H367.914l-9.87-21.348l218.529-270.637H602.281z
		 M574.966,194.604L392.476,420.937h182.491V194.604z"/>
	<path d="M625.697,327.052v-26.398h235.974v19.971L733.813,466.616c71.618,4.132,133.825,37.875,133.825,107.198
		c0,66.339-57.616,110.412-123.037,110.412c-61.519,0-107.659-28.004-138.646-67.946l21.576-17.674
		c30.301,38.333,67.946,60.37,117.53,60.37c50.729,0,93.194-33.974,93.194-84.014c0-53.486-49.582-82.408-117.528-82.408h-20.429
		l-6.887-15.608l129.924-149.895H625.697L625.697,327.052z"/>
	<g>
		<path d="M983.102,634.645c-68.635,113.626-193.279,189.834-335.599,189.834c-142.32,0-266.964-76.208-335.599-189.834h-29.84
			c71.39,128.546,208.429,215.545,365.439,215.545c157.01,0,294.049-86.999,365.438-215.545H983.102z"/>
		<path d="M324.302,211.819C395.001,108.981,513.448,41.266,647.503,41.266c134.056,0,252.502,67.716,323.203,170.554h30.758
			C927.55,94.061,796.479,15.556,647.503,15.556s-280.047,78.735-353.96,196.263H324.302z"/>
	</g>
</g>
<g>
	<g>
		<defs>
			<rect id="SVGID_1_" x="-0.508" y="231.33" width="1296.252" height="260.994"/>
		</defs>
		<clipPath id="SVGID_2_">
			<use xlink:href="#SVGID_1_"  overflow="visible"/>
		</clipPath>
		<path clip-path="url(#SVGID_2_)" fill="#FFFFFF" d="M1198.874,231.33h-37.645v260.994h37.645V231.33z M1255.113,231.33
			l-53.714,131.072l53.026,130.153h40.858l-54.631-130.153l55.091-131.072H1255.113z M1052.424,231.33h-37.645v260.994h102.146
			v-30.528h-64.502V231.33z M916.992,459.73c-1.607,1.606-5.051,2.295-10.102,2.295h-24.102c-5.051,0-8.265-0.688-9.869-2.295
			c-1.607-1.607-2.298-4.82-2.298-9.872V273.796c0-5.049,0.69-8.263,2.298-9.869c1.604-1.607,4.818-2.295,9.869-2.295h24.102
			c5.051,0,8.265,0.688,10.102,2.295c1.835,1.606,2.523,4.82,2.523,9.869v176.062C919.516,454.91,918.599,458.123,916.992,459.73
			 M832.747,268.059v187.77c0,24.56,13.085,36.727,39.254,36.727h46.368c25.938,0,38.793-12.167,38.793-36.727v-187.77
			c0-24.562-12.854-36.729-38.793-36.729h-46.368C845.832,231.33,832.747,243.497,832.747,268.059 M784.771,231.33H670.916v260.994
			h37.875V377.322h60.142v-29.611h-60.142v-85.852h75.98V231.33z M496.92,372.731h60.142v-30.529H496.92v-80.571h72.537V231.33
			H459.045v260.994h113.396v-30.528H496.92V372.731z M362.405,414.509L309.151,231.33h-39.712v260.994H304.1V303.867l55.091,188.457
			h37.875V231.33h-34.662V414.509z M164.308,492.324h37.646V231.33h-37.646V492.324z M113.347,231.33H-0.508v260.994h37.875V377.322
			h60.141v-29.611H37.368v-85.852h75.979V231.33z"/>
	</g>
</g>
<g>
	<g>
		<defs>
			<rect id="SVGID_3_" x="86.261" y="525.379" width="1122.715" height="84.934"/>
		</defs>
		<clipPath id="SVGID_4_">
			<use xlink:href="#SVGID_3_"  overflow="visible"/>
		</clipPath>
		<path clip-path="url(#SVGID_4_)" fill="#FFFFFF" d="M1099.252,530.2v-3.902h-19.971v3.902h7.805v21.808h4.36V530.2H1099.252z
			 M1040.029,539.383h-5.51V530.2h5.51c2.295,0,3.902,0.229,4.82,0.918c0.917,0.688,1.377,1.837,1.377,3.444
			c0,1.606-0.46,2.983-1.377,3.672C1044.159,538.923,1042.553,539.383,1040.029,539.383 M1048.292,528.135
			c-1.607-1.377-4.591-2.065-8.493-2.065h-9.642v25.938h4.362v-8.723h5.737l6.2,8.723h5.507l-6.886-9.411
			c3.674-1.148,5.509-3.902,5.509-8.034C1050.817,531.579,1049.898,529.512,1048.292,528.135 M983.331,542.137l4.591-10.558
			l4.591,10.558H983.331z M994.578,546.039l2.525,5.969h4.59l-11.477-25.938h-4.59l-11.479,25.938h4.59l2.525-5.969H994.578z
			 M913.088,530.2v-4.131h-17.216v25.938h4.362v-10.79h11.477v-4.13h-11.477v-7.116h12.854V530.2z M865.573,538.923
			c0-3.902-1.379-6.886-3.902-9.64c-2.525-2.525-5.739-3.904-9.642-3.904s-7.115,1.379-9.641,3.904
			c-2.525,2.523-3.902,5.737-3.902,9.64s1.377,6.888,3.902,9.642c2.525,2.525,5.738,3.902,9.641,3.902s7.116-1.377,9.642-3.902
			C864.194,545.811,865.573,542.597,865.573,538.923 M860.982,538.923c0,2.525-0.918,4.82-2.756,6.657
			c-1.837,1.836-3.901,2.754-6.427,2.754s-4.821-0.916-6.428-2.754c-1.835-1.837-2.754-4.132-2.754-6.657s0.919-4.821,2.754-6.655
			c1.837-1.838,3.902-2.756,6.428-2.756s4.82,0.918,6.427,2.756C860.064,534.102,860.982,536.169,860.982,538.923 M775.36,552.008
			v-4.132h-11.706v-21.807h-4.362v25.938H775.36z M728.992,538.923c0-3.902-1.376-6.886-3.901-9.64
			c-2.526-2.525-5.739-3.904-9.642-3.904s-7.116,1.379-9.642,3.904c-2.525,2.523-3.902,5.737-3.902,9.64s1.377,6.888,3.902,9.642
			c2.525,2.525,5.739,3.902,9.642,3.902s7.115-1.377,9.642-3.902C727.616,545.811,728.992,542.597,728.992,538.923 M724.402,538.923
			c0,2.525-0.919,4.82-2.756,6.657c-1.835,1.836-3.902,2.754-6.428,2.754s-4.82-0.916-6.426-2.754
			c-1.837-1.837-2.755-4.132-2.755-6.657s0.918-4.821,2.755-6.655c1.835-1.838,3.9-2.756,6.426-2.756s4.82,0.918,6.428,2.756
			C723.483,534.102,724.402,536.169,724.402,538.923 M672.983,538.923c0-3.902-1.377-6.886-3.902-9.64
			c-2.525-2.525-5.739-3.904-9.642-3.904s-7.116,1.379-9.642,3.904c-2.525,2.523-3.902,5.737-3.902,9.64s1.376,6.888,3.902,9.642
			c2.525,2.525,5.739,3.902,9.642,3.902s7.116-1.377,9.642-3.902C671.606,545.811,672.983,542.597,672.983,538.923 M668.621,538.923
			c0,2.525-0.917,4.82-2.754,6.657c-1.837,1.836-3.902,2.754-6.428,2.754s-4.82-0.916-6.428-2.754
			c-1.837-1.837-2.753-4.132-2.753-6.657s0.916-4.821,2.753-6.655c1.837-1.838,3.902-2.756,6.428-2.756s4.82,0.918,6.428,2.756
			C667.704,534.102,668.621,536.169,668.621,538.923 M598.151,552.008v-10.56h12.853v10.56h4.362v-25.938h-4.362v11.246h-12.853
			v-11.246h-4.363v25.938H598.151z M547.421,545.351c-1.837-1.837-2.756-3.902-2.756-6.656c0-2.525,0.919-4.82,2.756-6.427
			c1.837-1.607,3.902-2.526,6.658-2.526c1.376,0,2.753,0.23,3.902,0.688c1.147,0.459,2.295,1.377,3.442,2.525l2.755-2.983
			c-2.755-2.985-5.969-4.362-10.1-4.362c-4.132,0-7.346,1.377-9.872,3.902s-3.902,5.739-3.902,9.642
			c0,3.901,1.377,7.115,3.902,9.641s5.739,3.673,9.642,3.673c3.902,0,7.346-1.607,9.869-4.591l-2.753-2.983
			c-1.149,1.146-2.295,1.835-3.444,2.525c-1.146,0.458-2.295,0.688-3.902,0.688C551.093,548.105,549.027,547.188,547.421,545.351
			 M505.413,530.2c1.377,0.46,2.295,0.918,3.214,1.606l2.295-3.214c-1.147-0.916-2.525-1.835-4.132-2.295
			c-1.605-0.458-3.212-0.919-4.819-0.919c-2.525,0-4.821,0.69-6.428,1.837c-1.837,1.377-2.525,3.214-2.525,5.51
			c0,2.295,0.688,4.132,2.295,5.278c0.688,0.69,1.607,1.149,2.525,1.607c0.918,0.46,2.525,0.69,4.36,1.148
			c1.837,0.458,3.214,0.919,3.902,1.607c0.688,0.458,1.148,1.376,1.148,2.295c0,0.918-0.46,1.837-1.148,2.295
			c-0.688,0.461-1.835,0.919-3.442,0.919c-2.755,0-5.509-1.148-8.035-3.444l-2.755,3.214c3.214,2.756,6.658,4.133,10.79,4.133
			c2.753,0,5.049-0.688,6.656-2.065c1.607-1.379,2.525-3.214,2.525-5.509c0-2.296-0.688-3.902-2.065-5.051
			c-1.378-1.149-3.444-2.065-5.969-2.756c-2.753-0.688-4.36-1.146-5.279-1.835c-0.918-0.461-1.148-1.377-1.148-2.295
			c0-1.149,0.46-1.838,1.148-2.296c0.918-0.46,1.837-0.688,3.214-0.688S504.036,529.741,505.413,530.2 M422.316,530.2
			c1.379,0.46,2.297,0.918,3.214,1.606l2.297-3.214c-1.149-0.916-2.525-1.835-4.132-2.295c-1.607-0.458-3.214-0.919-4.821-0.919
			c-2.525,0-4.821,0.69-6.427,1.837c-1.837,1.377-2.525,3.214-2.525,5.51c0,2.295,0.688,4.132,2.295,5.278
			c0.688,0.69,1.607,1.149,2.525,1.607c0.918,0.46,2.525,0.69,4.362,1.148c1.835,0.458,3.212,0.919,3.902,1.607
			c0.688,0.458,1.146,1.376,1.146,2.295c0,0.918-0.458,1.837-1.146,2.295c-0.918,0.688-1.837,0.919-3.444,0.919
			c-2.755,0-5.509-1.148-8.035-3.444l-2.753,3.214c3.214,2.756,6.656,4.133,10.788,4.133c2.753,0,5.051-0.688,6.658-2.065
			c1.607-1.379,2.523-3.214,2.523-5.509c0-2.296-0.688-3.902-2.065-5.051c-1.376-1.149-3.444-2.065-5.969-2.756
			c-2.753-0.688-4.36-1.146-5.279-1.835c-0.918-0.461-1.146-1.377-1.146-2.295c0-1.149,0.458-1.838,1.146-2.296
			c0.918-0.46,1.837-0.688,3.214-0.688S420.939,529.741,422.316,530.2 M368.604,539.383h-5.509V530.2h5.509
			c2.295,0,3.902,0.229,4.818,0.918c0.919,0.688,1.379,1.837,1.379,3.444c0,1.606-0.46,2.983-1.379,3.672
			C372.735,538.923,371.128,539.383,368.604,539.383 M376.867,528.135c-1.607-1.377-4.591-2.065-8.493-2.065h-9.641v25.938h4.362
			v-8.723h5.737l6.198,8.723h5.509l-6.886-9.411c3.674-1.148,5.509-3.902,5.509-8.034
			C379.623,531.579,378.704,529.512,376.867,528.135 M309.839,526.069v25.938h18.594v-4.132h-14.231v-6.886h12.395v-3.902h-12.395
			V530.2h13.771v-4.131H309.839z M272.194,541.679l9.639-15.609h-4.818l-7.116,11.707l-7.116-11.707h-4.821l9.639,15.609v10.329
			h4.363v-10.329H272.194z M205.167,531.807l8.951,17.906h2.525l8.953-17.906v20.201h4.36v-25.938h-6.886l-7.804,16.298
			l-7.805-16.298h-6.886v25.938h4.36v-20.201H205.167z"/>
	</g>
	<g>
		<defs>
			<rect id="SVGID_5_" x="86.261" y="525.379" width="1122.715" height="84.934"/>
		</defs>
		<clipPath id="SVGID_6_">
			<use xlink:href="#SVGID_5_"  overflow="visible"/>
		</clipPath>
		<path clip-path="url(#SVGID_6_)" fill="#FFFFFF" d="M1201.399,598.146l-16.527-21.576h-6.886v33.513h7.574v-20.888l15.839,20.888
			h7.576V576.57h-7.576V598.146z M1158.704,593.098c0-4.821-1.607-8.953-5.049-12.397c-3.444-3.214-7.577-5.049-12.397-5.049
			c-5.049,0-9.181,1.606-12.395,5.049c-3.444,3.214-5.051,7.346-5.051,12.397c0,4.82,1.606,8.95,5.051,12.395
			c3.443,3.214,7.574,5.051,12.395,5.051c5.051,0,9.184-1.606,12.397-5.051C1157.097,602.048,1158.704,597.918,1158.704,593.098
			 M1148.146,600.672c-1.837,2.064-4.362,3.213-7.116,3.213c-2.755,0-5.051-1.148-7.115-3.213c-1.837-2.065-2.986-4.591-2.986-7.574
			c0-2.986,0.921-5.51,2.986-7.577c1.835-2.064,4.36-3.214,7.115-3.214c2.754,0,5.049,1.149,7.116,3.214
			c1.835,2.067,2.983,4.591,2.983,7.577C1151.129,596.081,1150.211,598.606,1148.146,600.672 M1096.727,610.083h7.574V576.57h-7.574
			V610.083z M1078.362,582.995v-6.425h-26.398v6.425h9.413v27.088h7.574v-27.088H1078.362z M1026.027,610.083h7.574V576.57h-7.574
			V610.083z M987.691,595.851h4.36c2.526,0,4.363,0.23,5.512,0.688c1.146,0.46,1.606,1.607,1.606,2.983
			c0,1.607-0.46,2.525-1.606,3.214c-1.148,0.461-2.756,0.69-4.821,0.69h-5.051V595.851z M987.691,582.768h3.672
			c2.296,0,3.675,0.228,4.593,0.688c0.917,0.458,1.377,1.376,1.377,2.983c0,1.606-0.46,2.525-1.606,2.983
			c-0.919,0.461-2.525,0.688-4.591,0.688h-3.444V582.768z M1004.449,606.869c1.606-1.835,2.295-3.902,2.295-6.197
			c0-2.065-0.688-3.902-1.837-5.279c-1.146-1.379-2.983-2.295-5.049-2.756c0.688-0.228,0.917-0.458,1.146-0.458
			c0.23,0,0.688-0.46,1.149-0.919c1.606-1.376,2.523-3.214,2.523-5.739c0-2.064-0.688-4.132-2.296-5.736
			c-0.918-0.919-2.065-1.607-3.672-2.298c-1.606-0.458-3.672-0.916-5.968-0.916h-13.085v33.513h14.692
			C999.398,610.083,1002.612,608.937,1004.449,606.869 M951.424,610.083h7.574V576.57h-7.574V610.083z M922.959,590.572h-13.312
			V576.57h-7.577v33.513h7.577v-13.084h13.312v13.084h7.574V576.57h-7.574V590.572z M868.327,586.439l-6.428-9.869h-8.951
			l10.558,16.297l-11.246,17.216h8.951l7.116-11.019l7.115,11.019h9.184l-11.248-17.446l10.329-16.066h-8.953L868.327,586.439z
			 M811.629,576.57v33.513h24.562v-6.656h-17.216v-6.888h14.921v-6.428h-14.921v-6.886h16.758v-6.655H811.629L811.629,576.57z
			 M766.868,593.098c0-4.821-1.607-8.953-5.051-12.397c-3.442-3.214-7.574-5.049-12.396-5.049c-5.051,0-9.181,1.606-12.395,5.049
			c-3.444,3.214-5.051,7.346-5.051,12.397c0,4.82,1.606,8.95,5.051,12.395c3.441,3.214,7.574,5.051,12.395,5.051
			c5.051,0,9.182-1.606,12.396-5.051S766.868,597.918,766.868,593.098 M756.308,600.672c-1.835,2.064-4.36,3.213-7.116,3.213
			c-2.753,0-5.049-1.148-7.115-3.213c-1.835-2.065-2.984-4.591-2.984-7.574c0-2.986,0.919-5.51,2.984-7.577
			c1.837-2.064,4.362-3.214,7.115-3.214c2.756,0,5.052,1.149,7.116,3.214c1.837,2.067,2.984,4.591,2.984,7.577
			C759.063,596.081,758.145,598.606,756.308,600.672 M704.889,610.083h7.576V576.57h-7.576V610.083z M686.527,610.083v-6.656
			h-14.232V576.57h-7.576v33.513H686.527z M645.438,593.098c0-4.821-1.606-8.953-5.051-12.397
			c-3.444-3.214-7.574-5.049-12.395-5.049c-5.051,0-9.182,1.606-12.395,5.049c-3.444,3.214-5.051,7.346-5.051,12.397
			c0,4.82,1.607,8.95,5.051,12.395c3.442,3.214,7.574,5.051,12.395,5.051c5.051,0,9.181-1.606,12.395-5.051
			C643.831,602.048,645.438,597.918,645.438,593.098 M634.878,600.672c-1.835,2.064-4.36,3.213-7.116,3.213
			c-2.753,0-5.051-1.148-7.116-3.213c-1.835-2.065-2.983-4.591-2.983-7.574c0-2.986,0.918-5.51,2.983-7.577
			c1.837-2.064,4.363-3.214,7.116-3.214c2.756,0,5.051,1.149,7.116,3.214c1.837,2.067,2.983,4.591,2.983,7.577
			C637.861,596.081,636.943,598.606,634.878,600.672 M569.915,576.57v33.513h7.577v-13.084h14.69v-6.657h-14.69v-7.347h15.609
			v-6.655h-23.186V576.57z M551.553,582.995v-6.425h-26.399v6.425h9.411v27.088h7.576v-27.088H551.553z M493.707,592.867h-5.509
			v-9.872h5.509c2.295,0,4.132,0.23,5.051,0.919c0.917,0.688,1.377,1.837,1.377,3.674c0,1.835-0.46,3.214-1.377,3.902
			C498.067,592.409,496.232,592.867,493.707,592.867 M504.725,579.094c-2.295-1.836-5.967-2.523-11.248-2.523h-12.625v33.513h7.576
			v-10.788h5.279l7.346,10.788h9.181l-8.493-11.937c4.132-1.607,6.428-5.049,6.428-10.33
			C507.938,583.686,506.79,580.931,504.725,579.094 M461.57,593.098c0-4.821-1.606-8.953-5.051-12.397
			c-3.441-3.214-7.574-5.049-12.395-5.049c-5.051,0-9.184,1.606-12.395,5.049c-3.444,3.214-5.051,7.346-5.051,12.397
			c0,4.82,1.607,8.95,5.051,12.395c3.442,3.214,7.574,5.051,12.395,5.051c5.049,0,9.181-1.606,12.395-5.051
			C459.964,602.048,461.57,597.918,461.57,593.098 M451.011,600.672c-1.837,2.064-4.36,3.213-7.116,3.213
			c-2.753,0-5.049-1.148-7.116-3.213c-1.837-2.065-2.984-4.591-2.984-7.574c0-2.986,0.918-5.51,2.984-7.577
			c1.837-2.064,4.362-3.214,7.116-3.214c2.756,0,5.051,1.149,7.116,3.214c1.837,2.067,2.983,4.591,2.983,7.577
			C453.994,596.081,453.078,598.606,451.011,600.672 M395.459,594.244h-5.049v-11.249h4.36c2.525,0,4.363,0.461,5.509,1.149
			c1.148,0.918,1.837,2.295,1.837,4.132c0,1.835-0.458,3.442-1.377,4.36C399.592,593.556,397.985,594.244,395.459,594.244
			 M394.771,576.57h-11.937v33.513h7.576v-9.411h4.36c5.051,0,8.723-0.919,11.018-2.984c2.295-1.837,3.674-5.051,3.674-9.183
			c0-4.131-1.149-7.116-3.444-9.182C403.724,577.486,399.822,576.57,394.771,576.57 M322.464,592.867h-5.509v-9.872h5.509
			c2.295,0,4.132,0.23,5.051,0.919c0.918,0.688,1.376,1.837,1.376,3.674c0,1.835-0.458,3.214-1.376,3.902
			C326.827,592.409,324.99,592.867,322.464,592.867 M333.482,579.094c-2.295-1.836-5.967-2.523-11.248-2.523h-12.625v33.513h7.576
			v-10.788h5.279l7.346,10.788h9.181l-8.493-11.937c4.36-1.607,6.428-5.049,6.428-10.33
			C336.696,583.686,335.778,580.931,333.482,579.094 M290.329,593.098c0-4.821-1.607-8.953-5.051-12.397
			c-3.444-3.214-7.574-5.049-12.395-5.049c-5.051,0-9.181,1.606-12.395,5.049c-3.444,3.214-5.051,7.346-5.051,12.397
			c0,4.82,1.607,8.95,5.051,12.395c3.442,3.214,7.574,5.051,12.395,5.051c5.051,0,9.181-1.606,12.395-5.051
			C288.722,602.048,290.329,597.918,290.329,593.098 M279.769,600.672c-1.835,2.064-4.36,3.213-7.116,3.213
			c-2.753,0-5.049-1.148-7.116-3.213c-1.835-2.065-2.984-4.591-2.984-7.574c0-2.986,0.919-5.51,2.984-7.577
			c1.837-2.064,4.362-3.214,7.116-3.214c2.756,0,5.051,1.149,7.116,3.214c1.837,2.067,2.983,4.591,2.983,7.577
			C282.752,596.081,281.833,598.606,279.769,600.672 M228.58,610.083h7.574V576.57h-7.574V610.083z M199.886,598.146l-16.527-21.576
			h-6.886v33.513h7.574v-20.888l15.839,20.888h7.576V576.57h-7.576V598.146z M132.17,576.57v33.513h24.562v-6.656h-17.216v-6.888
			h14.92v-6.428h-14.92v-6.886h16.758v-6.655H132.17L132.17,576.57z M99.345,582.307c2.984,0,6.198,1.149,8.952,3.214l3.673-5.509
			c-1.607-1.377-3.673-2.525-5.739-3.214c-2.295-0.688-4.362-1.146-6.657-1.146c-3.443,0-6.197,0.919-8.494,2.525
			c-2.295,1.835-3.443,4.13-3.443,7.344s0.918,5.51,2.754,6.889c1.837,1.376,4.592,2.753,8.494,3.672
			c2.524,0.688,4.131,1.146,4.819,1.837c0.918,0.688,1.149,1.377,1.149,2.295c0,0.917-0.459,1.835-1.149,2.296
			c-0.688,0.688-1.836,0.918-3.212,0.918c-2.985,0-6.428-1.606-10.101-4.82l-4.361,5.509c4.132,3.902,8.953,5.968,14.232,5.968
			c3.673,0,6.657-0.919,8.952-2.754c2.296-1.837,3.444-4.362,3.444-7.346c0-2.984-0.918-5.279-2.525-6.886
			c-1.836-1.607-4.131-2.756-7.345-3.444s-5.28-1.377-6.197-2.065c-0.918-0.69-1.378-1.379-1.378-2.297
			c0-0.917,0.459-1.835,1.148-2.296C97.279,582.537,98.197,582.307,99.345,582.307"/>
	</g>
</g>
</svg>
