<?xml version="1.0" encoding="utf-8"?>
<!-- Generator: Adobe Illustrator 16.0.0, SVG Export Plug-In . SVG Version: 6.00 Build 0)  -->
<!DOCTYPE svg PUBLIC "-//W3C//DTD SVG 1.1//EN" "http://www.w3.org/Graphics/SVG/1.1/DTD/svg11.dtd">
<svg version="1.1" id="Capa_1" xmlns="http://www.w3.org/2000/svg" xmlns:xlink="http://www.w3.org/1999/xlink" x="0px" y="0px"
	 width="864px" height="864px" viewBox="216 0 864 864" enable-background="new 216 0 864 864" xml:space="preserve">
<g>
	<path fill="#FFFFFF" d="M1078.963,403.2C1064.794,187.545,892.454,15.149,676.8,0.979V0H648h-28.8v0.979
		C403.546,15.149,231.149,187.545,216.979,403.2H216V432v28.8h0.979c14.17,215.654,186.567,387.994,402.221,402.163V864H648h28.8
		v-1.037c215.654-14.169,387.994-186.509,402.163-402.163H1080V432v-28.8H1078.963z M486.432,94.176
		c-27.82,36.979-50.918,83.348-67.737,136.224H332.41C369.965,171.821,423.303,124.416,486.432,94.176z M302.285,288h101.261
		c-7.719,36.403-12.615,75.053-14.17,115.2H274.694C277.747,362.649,287.309,323.885,302.285,288z M274.694,460.8h114.682
		c1.555,40.147,6.451,78.797,14.17,115.2H302.285C287.309,540.115,277.747,501.351,274.694,460.8z M332.41,633.6h86.227
		c16.819,52.877,39.917,99.245,67.795,136.225C423.303,739.584,369.965,692.236,332.41,633.6z M619.2,802.714
		c-59.213-15.84-110.188-79.431-141.12-169.114H619.2V802.714z M619.2,576H461.895c-8.122-35.885-13.248-74.649-14.919-115.2H619.2
		V576z M619.2,403.2H446.976c1.671-40.551,6.797-79.315,14.919-115.2H619.2V403.2z M619.2,230.4H478.08
		c30.932-89.683,81.907-153.273,141.12-169.056V230.4z M963.59,230.4h-86.169c-16.877-52.876-39.917-99.245-67.853-136.224
		C872.64,124.416,926.035,171.821,963.59,230.4z M676.8,61.344c59.155,15.783,110.188,79.373,141.12,169.056H676.8V61.344z
		 M676.8,288h157.248c8.18,35.885,13.19,74.649,14.976,115.2H676.8V288z M676.8,460.8h172.224
		c-1.67,40.551-6.796,79.315-14.976,115.2H676.8V460.8z M676.8,802.714V633.6h141.12C786.988,723.283,735.955,786.874,676.8,802.714
		z M809.568,769.824c27.82-37.037,50.976-83.348,67.853-136.225h86.169C926.035,692.236,872.64,739.584,809.568,769.824z
		 M993.715,576H892.454c7.719-36.403,12.614-75.053,14.17-115.2h114.624C1018.253,501.351,1008.691,540.115,993.715,576z
		 M906.624,403.2c-1.556-40.147-6.451-78.797-14.17-115.2h101.261c14.977,35.885,24.538,74.649,27.591,115.2H906.624z"/>
</g>
</svg>
